<svg width="16" height="19" viewBox="0 0 16 19" fill="none" xmlns="http://www.w3.org/2000/svg">
<path fill-rule="evenodd" clip-rule="evenodd" d="M8.25882 2.9698C8.14292 2.77211 7.85712 2.77211 7.74122 2.9698L6.72864 4.69694L4.77313 5.12625C4.54929 5.17539 4.46098 5.44719 4.61318 5.61852L5.94288 7.11525L5.74689 9.10771C5.72446 9.33578 5.95567 9.50376 6.16564 9.41195L8.00002 8.60985L9.8344 9.41195C10.0444 9.50376 10.2756 9.33578 10.2531 9.10771L10.0572 7.11525L11.3869 5.61852C11.5391 5.44719 11.4507 5.17539 11.2269 5.12625L9.2714 4.69694L8.25882 2.9698ZM7.56262 5.84481L8.00002 5.09874L8.43742 5.84481L9.28214 6.03026L8.70775 6.6768L8.79241 7.53748L8.00002 7.191L7.20762 7.53748L7.29229 6.6768L6.7179 6.03026L7.56262 5.84481Z" fill="#626F84"/>
<path fill-rule="evenodd" clip-rule="evenodd" d="M14.5 6.5C14.5 7.75539 14.1441 8.92765 13.5277 9.9214L15.9353 15.8361C16.0263 16.0598 15.9859 16.3155 15.8302 16.5002C15.6745 16.6848 15.4293 16.7679 15.1934 16.716L12.04 16.0215L10.3229 18.6946C10.1917 18.8987 9.95776 19.0128 9.71613 18.9905C9.4745 18.9681 9.26544 18.8131 9.17395 18.5883L7.99578 15.6939L6.8176 18.5883C6.72565 18.8142 6.51501 18.9696 6.27206 18.9908C6.02911 19.012 5.79474 18.8954 5.66507 18.6889L3.96679 15.9839L0.804634 16.7145C0.568156 16.7691 0.320936 16.6875 0.163534 16.5027C0.00613235 16.318 -0.0352287 16.0609 0.0562752 15.8361L2.46719 9.91321C1.85392 8.92121 1.49999 7.75194 1.49999 6.5C1.49999 2.91015 4.41013 0 7.99999 0C11.5898 0 14.5 2.91015 14.5 6.5ZM13.2 6.5C13.2 9.37188 10.8719 11.7 7.99999 11.7C5.1281 11.7 2.79999 9.37188 2.79999 6.5C2.79999 3.62812 5.1281 1.3 7.99999 1.3C10.8719 1.3 13.2 3.62812 13.2 6.5ZM9.13232 12.9017C10.4756 12.6657 11.6768 12.0173 12.6005 11.0918L14.2648 15.1803L11.8776 14.6546C11.6119 14.5961 11.3379 14.7092 11.1909 14.9381L9.90592 16.9384L8.69757 13.9698L9.13232 12.9017ZM3.39345 11.0858L1.73269 15.1658L4.12494 14.6131C4.39479 14.5508 4.6745 14.6663 4.82176 14.9008L6.09168 16.9235L7.69167 12.9928C6.0142 12.9145 4.50295 12.2003 3.39345 11.0858Z" fill="#626F84"/>
</svg>
